<svg width="24" height="24" viewBox="0 0 24 24" fill="none" xmlns="http://www.w3.org/2000/svg">
<path d="M18.25 3.33008H5.75C4.95435 3.33008 4.19129 3.64615 3.62868 4.20876C3.06607 4.77137 2.75 5.53443 2.75 6.33008V14.2001C2.75 14.9958 3.06607 15.7588 3.62868 16.3214C4.19129 16.884 4.95435 17.2001 5.75 17.2001H18.25C19.0456 17.2001 19.8087 16.884 20.3713 16.3214C20.9339 15.7588 21.25 14.9958 21.25 14.2001V6.33008C21.25 5.53443 20.9339 4.77137 20.3713 4.20876C19.8087 3.64615 19.0456 3.33008 18.25 3.33008Z" stroke="black" stroke-width="1.5" stroke-linecap="round" stroke-linejoin="round"/>
<path d="M12 17.2V20.67" stroke="black" stroke-width="1.5" stroke-linecap="round" stroke-linejoin="round"/>
<path d="M8.53027 20.67H15.4702" stroke="black" stroke-width="1.5" stroke-linecap="round" stroke-linejoin="round"/>
</svg>
