<?xml version="1.0" encoding="UTF-8" standalone="no"?>
<svg
   width="24"
   height="24"
   viewBox="0 0 24 24"
   fill="none"
   version="1.1"
   id="svg1"
   xml:space="preserve"
   xmlns="http://www.w3.org/2000/svg"
   xmlns:svg="http://www.w3.org/2000/svg"><defs
     id="defs1" /><g
     style="fill:#5f6368"
     id="g1"
     transform="matrix(0.025,0,0,0.025,0,24)"><path
       d="m 480,-80 q -33,0 -56.5,-23.5 Q 400,-127 400,-160 h 160 q 0,33 -23.5,56.5 Q 513,-80 480,-80 Z M 320,-200 v -80 h 320 v 80 z m 10,-120 Q 261,-361 220.5,-430 180,-499 180,-580 180,-705 267.5,-792.5 355,-880 480,-880 q 125,0 212.5,87.5 87.5,87.5 87.5,212.5 0,81 -40.5,150 -40.5,69 -109.5,110 z m 24,-80 h 252 q 45,-32 69.5,-79 24.5,-47 24.5,-101 0,-92 -64,-156 -64,-64 -156,-64 -92,0 -156,64 -64,64 -64,156 0,54 24.5,101 24.5,47 69.5,79 z m 126,0 z"
       id="path1-8" /></g></svg>
