<?xml version="1.0" encoding="UTF-8" standalone="no"?>
<svg
   width="24"
   height="24"
   viewBox="0 0 24 24"
   fill="none"
   version="1.1"
   id="svg1"
   xml:space="preserve"
   xmlns="http://www.w3.org/2000/svg"
   xmlns:svg="http://www.w3.org/2000/svg"><defs
     id="defs1" /><g
     style="fill:#5f6368"
     id="g1"
     transform="matrix(0.025,0,0,0.025,0,24)"><path
       d="m 480,-80 q -33,0 -56.5,-23.5 Q 400,-127 400,-160 h 160 q 0,33 -23.5,56.5 Q 513,-80 480,-80 Z M 320,-200 v -80 h 320 v 80 z m 10,-120 Q 261,-361 220.5,-430 180,-499 180,-580 180,-705 267.5,-792.5 355,-880 480,-880 q 125,0 212.5,87.5 87.5,87.5 87.5,212.5 0,81 -40.5,150 -40.5,69 -109.5,110 z m 24,-80 h 252 q 45,-32 69.5,-79 24.5,-47 24.5,-101 0,-92 -64,-156 -64,-64 -156,-64 -92,0 -156,64 -64,64 -64,156 0,54 24.5,101 24.5,47 69.5,79 z m 126,0 z"
       id="path1-8" /><g
       id="g2"
       transform="translate(0.05492428)"><path
         style="fill:#000000;stroke:#5f6368;stroke-width:40;stroke-opacity:1"
         d="m 204.62705,-796.2953 -79.77899,-63.82932"
         id="path1" /><path
         style="fill:#000000;stroke:#5f6368;stroke-width:40;stroke-opacity:1"
         d="m 173.48165,-413.15595 -82.302715,60.54034"
         id="path1-3" /><path
         style="fill:#000000;stroke:#5f6368;stroke-width:40;stroke-opacity:1"
         d="m 134.20919,-604.0692 -102.169645,0.4826"
         id="path1-7" /></g><g
       id="g6"
       transform="matrix(-1,0,0,1,959.96168,0)"><path
         style="fill:#000000;stroke:#5f6368;stroke-width:40;stroke-opacity:1"
         d="m 204.62705,-796.2953 -79.77899,-63.82932"
         id="path4" /><path
         style="fill:#000000;stroke:#5f6368;stroke-width:40;stroke-opacity:1"
         d="m 173.48165,-413.15595 -82.302715,60.54034"
         id="path5" /><path
         style="fill:#000000;stroke:#5f6368;stroke-width:40;stroke-opacity:1"
         d="m 134.20919,-604.0692 -102.169645,0.4826"
         id="path6" /></g></g></svg>
