<svg width="24" height="24" viewBox="0 0 24 24" fill="none" xmlns="http://www.w3.org/2000/svg">
<path d="M5.64404 5.02467V18.9711C5.64473 19.257 5.72539 19.5371 5.87692 19.7796C6.02845 20.0221 6.24479 20.2173 6.5015 20.3433C6.7582 20.4693 7.04502 20.5209 7.32953 20.4924C7.61405 20.4638 7.88491 20.3563 8.11149 20.1818L17.7667 12.6722C17.9579 12.523 18.111 12.3305 18.2133 12.1106C18.3156 11.8907 18.3643 11.6497 18.3553 11.4073C18.3463 11.165 18.28 10.9282 18.1617 10.7165C18.0434 10.5047 17.8765 10.3241 17.6748 10.1894L8.01953 3.75264C7.78903 3.60084 7.52182 3.5141 7.24611 3.50158C6.9704 3.48906 6.69643 3.55122 6.45312 3.68151C6.20982 3.8118 6.00621 4.00537 5.8638 4.24178C5.72139 4.4782 5.64546 4.74868 5.64404 5.02467Z" stroke="black" stroke-width="1.5" stroke-linecap="round" stroke-linejoin="round"/>
</svg>
