<svg width="24" height="24" viewBox="0 0 24 24" fill="none" xmlns="http://www.w3.org/2000/svg">
<path d="M17.6053 7.70537C16.8707 6.96718 15.9971 6.38183 15.035 5.98308C14.0729 5.58435 13.0413 5.38013 11.9999 5.38222C9.89705 5.38222 7.88042 6.21757 6.39352 7.70446C4.90662 9.19136 4.07129 11.208 4.07129 13.3107C4.07129 15.4146 4.90628 17.4323 6.39287 18.9209C7.87946 20.4095 9.8961 21.2472 11.9999 21.25C14.1036 21.2472 16.1203 20.4095 17.6069 18.9209C19.0935 17.4323 19.9285 15.4146 19.9285 13.3107" stroke="black" stroke-width="1.5" stroke-miterlimit="10" stroke-linecap="round"/>
<path d="M16.8809 2.75L17.8293 6.60772C17.9131 6.94965 17.8581 7.31085 17.6764 7.61238C17.4946 7.9139 17.201 8.13125 16.8595 8.21689L12.9912 9.16532" stroke="black" stroke-width="1.5" stroke-linecap="round" stroke-linejoin="round"/>
</svg>
