<svg width="24" height="24" viewBox="0 0 24 24" fill="none" xmlns="http://www.w3.org/2000/svg">
<path d="M21.25 9.15957V17.1466C21.25 18.2349 20.817 19.2786 20.0462 20.0481C19.2754 20.8177 18.23 21.25 17.14 21.25H6.86C5.76996 21.25 4.72457 20.8177 3.95379 20.0481C3.18302 19.2786 2.75 18.2349 2.75 17.1466V6.85331C2.75 5.76504 3.18302 4.72134 3.95379 3.95181C4.72457 3.18229 5.76996 2.74997 6.86 2.74997H15.21C15.6344 2.74801 16.0545 2.83598 16.4423 3.00809C16.8302 3.18019 17.177 3.4325 17.46 3.74835L20.46 7.16281C20.9614 7.70807 21.2429 8.41939 21.25 9.15957Z" stroke="black" stroke-width="1.5" stroke-linecap="round" stroke-linejoin="round"/>
<path d="M7 21.22V15.9785C7 15.4489 7.21071 14.9411 7.58579 14.5666C7.96086 14.1921 8.46957 13.9818 9 13.9818H15C15.5304 13.9818 16.0391 14.1921 16.4142 14.5666C16.7893 14.9411 17 15.4489 17 15.9785V21.22" stroke="black" stroke-width="1.5" stroke-linecap="round" stroke-linejoin="round"/>
<path d="M15.8002 2.8099V6.99311C15.8002 7.39651 15.6404 7.78354 15.3556 8.06972C15.0709 8.3559 14.6843 8.518 14.2802 8.52063H9.72019C9.31615 8.518 8.92955 8.3559 8.64478 8.06972C8.36001 7.78354 8.20019 7.39651 8.2002 6.99311V2.75" stroke="black" stroke-width="1.5" stroke-linecap="round" stroke-linejoin="round"/>
<path d="M10.146 17.8578H13.8538" stroke="black" stroke-width="1.5" stroke-linecap="round" stroke-linejoin="round"/>
</svg>
