<svg width="24" height="24" viewBox="0 0 24 24" fill="none" xmlns="http://www.w3.org/2000/svg">
<path d="M14.524 17.6486L18.0365 19.4894C18.1849 19.5715 18.3541 19.6083 18.5232 19.5952C18.6876 19.5821 18.8451 19.5235 18.9781 19.426C19.1143 19.3261 19.2205 19.1907 19.2849 19.0345C19.3442 18.8796 19.3624 18.7119 19.3378 18.5478L18.6607 14.6439C18.6288 14.501 18.6288 14.3529 18.6607 14.2101C18.7074 14.0698 18.7872 13.9427 18.8935 13.8398L21.7289 11.0784C21.8467 10.96 21.9304 10.8121 21.9714 10.6501C22.0123 10.4882 22.009 10.3182 21.9616 10.158C21.9094 9.99784 21.8143 9.85513 21.6865 9.74534C21.5598 9.63868 21.406 9.56912 21.2422 9.54433L17.3171 8.98359C17.1728 8.96038 17.0362 8.90318 16.9185 8.81672C16.8007 8.73025 16.7052 8.61701 16.6399 8.48634L14.8837 4.91034C14.8131 4.76143 14.7025 4.63507 14.5642 4.54539C14.426 4.45571 14.2655 4.40624 14.1008 4.40251C13.9318 4.39917 13.7658 4.44712 13.6247 4.54004C13.4792 4.62595 13.3644 4.75551 13.2967 4.91034L11.4981 8.48634C11.4332 8.61521 11.3391 8.72722 11.2235 8.81352C11.1078 8.89981 10.9736 8.95804 10.8316 8.98359L6.95938 9.54433C6.79231 9.56884 6.63506 9.63832 6.50445 9.74534C6.37456 9.85319 6.27896 9.99658 6.22937 10.158C6.18721 10.3175 6.18721 10.4852 6.22937 10.6447C6.26935 10.8112 6.3577 10.9621 6.48329 11.0784L9.31869 13.8398C9.42122 13.9457 9.5005 14.0718 9.55145 14.2101C9.58337 14.3529 9.58337 14.501 9.55145 14.6439L8.87434 18.5478C8.82731 18.7067 8.82731 18.8757 8.87434 19.0345C8.93875 19.1907 9.0449 19.3261 9.18116 19.426C9.31415 19.5235 9.47167 19.5821 9.63609 19.5952C9.80517 19.6083 9.97437 19.5715 10.1227 19.4894L13.6353 17.6486C13.7655 17.5791 13.9108 17.5428 14.0584 17.5428C14.2061 17.5428 14.3514 17.5791 14.4816 17.6486H14.524Z" stroke="black" stroke-width="1.5" stroke-linecap="round" stroke-linejoin="round"/>
<path d="M8 5.40039H2" stroke="black" stroke-width="1.5" stroke-linecap="round" stroke-linejoin="round"/>
<path d="M5 17.4692H2" stroke="black" stroke-width="1.5" stroke-linecap="round" stroke-linejoin="round"/>
<path d="M3.5 11.6973H2" stroke="black" stroke-width="1.5" stroke-linecap="round" stroke-linejoin="round"/>
</svg>
