<svg width="24" height="24" viewBox="0 0 24 24" fill="none" xmlns="http://www.w3.org/2000/svg">
<path d="M11.0084 5.7576L6.93279 8.01954C6.61474 8.19671 6.34997 8.45586 6.16601 8.77003C5.98204 9.0842 5.88561 9.44192 5.88673 9.80599V14.194C5.88561 14.5581 5.98204 14.9158 6.16601 15.23C6.34997 15.5441 6.61474 15.8033 6.93279 15.9805L11.0084 18.2424C11.3116 18.4113 11.653 18.5 12.0001 18.5C12.3472 18.5 12.6886 18.4113 12.9918 18.2424L17.0674 15.9805C17.3854 15.8033 17.6502 15.5441 17.8342 15.23C18.0181 14.9158 18.1146 14.5581 18.1134 14.194V9.80599C18.1146 9.44192 18.0181 9.0842 17.8342 8.77003C17.6502 8.45586 17.3854 8.19671 17.0674 8.01954L12.9918 5.7576C12.6886 5.58867 12.3472 5.5 12.0001 5.5C11.653 5.5 11.3116 5.58867 11.0084 5.7576Z" stroke="black" stroke-width="1.5"/>
<path d="M17.6992 8.57651L12.0002 12L6.30127 8.57651" stroke="black" stroke-width="1.5"/>
<path d="M12 18.4937V12" stroke="black" stroke-width="1.5"/>
<path d="M21.2502 7.88889V5.83333C21.2502 5.01558 20.9254 4.23132 20.3471 3.65309C19.7689 3.07485 18.9846 2.75 18.1669 2.75H15.0835" stroke="black" stroke-width="1.5" stroke-linecap="round" stroke-linejoin="round"/>
<path d="M15.0835 21.25H18.1669C18.9846 21.25 19.7689 20.9252 20.3471 20.3469C20.9254 19.7687 21.2502 18.9844 21.2502 18.1667V16.1111" stroke="black" stroke-width="1.5" stroke-linecap="round" stroke-linejoin="round"/>
<path d="M2.75 16.1111V18.1667C2.75 18.9844 3.07485 19.7687 3.65309 20.3469C4.23132 20.9252 5.01558 21.25 5.83333 21.25H8.91666" stroke="black" stroke-width="1.5" stroke-linecap="round" stroke-linejoin="round"/>
<path d="M8.91666 2.75H5.83333C5.01558 2.75 4.23132 3.07485 3.65309 3.65309C3.07485 4.23132 2.75 5.01558 2.75 5.83333V7.88889" stroke="black" stroke-width="1.5" stroke-linecap="round" stroke-linejoin="round"/>
</svg>
