<svg width="24" height="24" viewBox="0 0 24 24" fill="none" xmlns="http://www.w3.org/2000/svg">
<path d="M18.3266 7.28595H10.283C9.21979 7.28595 8.35791 8.15362 8.35791 9.22395V19.312C8.35791 20.3823 9.21979 21.25 10.283 21.25H18.3266C19.3897 21.25 20.2516 20.3823 20.2516 19.312V9.22395C20.2516 8.15362 19.3897 7.28595 18.3266 7.28595Z" stroke="black" stroke-width="1.5" stroke-linecap="round" stroke-linejoin="round"/>
<path d="M15.6418 7.28596V4.688C15.6418 4.17401 15.439 3.68107 15.0779 3.31763C14.7169 2.95418 14.2273 2.75 13.7167 2.75H5.6731C5.16254 2.75 4.6729 2.95418 4.31188 3.31763C3.95087 3.68107 3.74805 4.17401 3.74805 4.688V14.7761C3.74805 15.2901 3.95087 15.783 4.31188 16.1464C4.6729 16.5099 5.16254 16.7141 5.6731 16.7141H8.35776" stroke="black" stroke-width="1.5" stroke-linecap="round" stroke-linejoin="round"/>
</svg>
