<svg width="24" height="24" viewBox="0 0 24 24" fill="none" xmlns="http://www.w3.org/2000/svg">
<path d="M4.14415 16.7345L4.63675 13.3098C4.66374 13.0863 4.76736 12.8791 4.92996 12.7234L14.5943 3.05905C14.7186 2.93238 14.8736 2.83993 15.0441 2.79062C15.2146 2.74131 15.395 2.73682 15.5677 2.77757C16.4591 3.01504 17.2696 3.4892 17.9135 4.14981C18.5797 4.79112 19.0583 5.60219 19.2974 6.49551C19.3348 6.66839 19.3287 6.84786 19.2796 7.01778C19.2304 7.18771 19.1398 7.34275 19.0159 7.46898L9.35162 17.1333C9.18476 17.2868 8.977 17.3886 8.75346 17.4265L5.31701 17.9191C5.15686 17.9408 4.99387 17.9249 4.84088 17.8729C4.68788 17.8208 4.54907 17.7339 4.43537 17.6191C4.32166 17.5043 4.23618 17.3646 4.18564 17.2111C4.13511 17.0576 4.12091 16.8944 4.14415 16.7345Z" stroke="black" stroke-width="1.5" stroke-linecap="round" stroke-linejoin="round"/>
<path d="M12.7764 4.8887L17.1863 9.2869" stroke="black" stroke-width="1.5" stroke-linecap="round" stroke-linejoin="round"/>
<path d="M3.79004 21.25H20.21" stroke="black" stroke-width="1.5" stroke-linecap="round" stroke-linejoin="round"/>
</svg>
