<?xml version="1.0" encoding="UTF-8"?>
<!DOCTYPE svg PUBLIC "-//W3C//DTD SVG 1.1//EN" "http://www.w3.org/Graphics/SVG/1.1/DTD/svg11.dtd">
<svg xmlns="http://www.w3.org/2000/svg" version="1.1" width="225px" height="225px" style="shape-rendering:geometricPrecision; text-rendering:geometricPrecision; image-rendering:optimizeQuality; fill-rule:evenodd; clip-rule:evenodd" xmlns:xlink="http://www.w3.org/1999/xlink">
<g><path style="opacity:1" fill="#f9f9f9" d="M -0.5,-0.5 C 24.1667,-0.5 48.8333,-0.5 73.5,-0.5C 74.5934,3.3939 75.2601,7.3939 75.5,11.5C 71.2022,12.1995 66.8689,12.5328 62.5,12.5C 64.8806,23.4924 61.0473,27.159 51,23.5C 50.5014,19.8484 50.3347,16.1817 50.5,12.5C 46.5633,12.7935 42.73,12.4601 39,11.5C 38.6905,12.7659 38.1905,13.9326 37.5,15C 38.8333,18 38.8333,21 37.5,24C 33.5138,24.4988 29.5138,24.6655 25.5,24.5C 26.1621,28.4659 26.4955,32.4659 26.5,36.5C 30.1667,36.5 33.8333,36.5 37.5,36.5C 37.8454,39.8217 38.1787,43.155 38.5,46.5C 36.8828,48.1209 35.7162,50.1209 35,52.5C 34.6411,49.4557 33.9745,49.1224 33,51.5C 32.6667,50.8333 32.3333,50.1667 32,49.5C 30.3333,49.8333 28.6667,50.1667 27,50.5C 26.3333,53.5 26.3333,56.5 27,59.5C 29.0408,60.4231 31.2075,60.7564 33.5,60.5C 33.6822,55.2063 34.1822,55.2063 35,60.5C 36.2051,61.0712 37.3717,61.7379 38.5,62.5C 39.4173,65.7577 39.7507,69.091 39.5,72.5C 42.8333,72.5 46.1667,72.5 49.5,72.5C 49.335,69.1501 49.5017,65.8168 50,62.5C 50.4997,70.1594 50.6664,77.8261 50.5,85.5C 46.1539,85.3343 41.8206,85.501 37.5,86C 38.3817,89.7784 38.715,93.4451 38.5,97C 33.4551,97.5047 28.4551,97.838 23.5,98C 24.4162,97.6258 25.2496,97.1258 26,96.5C 26.6667,93.5 26.6667,90.5 26,87.5C 24.3023,86.267 22.3023,85.6004 20,85.5C 17.9063,85.5356 15.9063,85.8689 14,86.5C 13.8568,90.6192 13.1901,94.6192 12,98.5C 8.60636,97.5442 5.10636,97.2108 1.5,97.5C 1.17744,93.774 1.51078,90.1073 2.5,86.5C 6.09377,85.5741 9.76043,85.2408 13.5,85.5C 13.5703,82.1716 13.9037,79.1716 14.5,76.5C 13.5,75.6667 12.5,74.8333 11.5,74C 8.18323,73.5017 4.8499,73.335 1.5,73.5C 2.08943,69.0293 1.42277,65.0293 -0.5,61.5C -0.5,40.8333 -0.5,20.1667 -0.5,-0.5 Z"/></g>
<g><path style="opacity:1" fill="#f5f5f5" d="M 73.5,-0.5 C 110.833,-0.5 148.167,-0.5 185.5,-0.5C 185.324,3.28886 185.324,7.28886 185.5,11.5C 189.172,12.6539 192.838,12.8206 196.5,12C 197.297,15.7454 197.797,19.5787 198,23.5C 201.411,24.2931 204.911,24.7931 208.5,25C 209.886,28.4596 210.22,31.9596 209.5,35.5C 205.623,36.197 201.79,36.8637 198,37.5C 197.825,41.211 197.325,44.8776 196.5,48.5C 194.261,46.8795 192.427,47.2129 191,49.5C 190.692,48.6919 190.192,48.0253 189.5,47.5C 189.089,48.2624 188.923,49.2624 189,50.5C 187.35,47.894 185.85,47.894 184.5,50.5C 152.409,15.7282 114.076,6.56154 69.5,23C 57.264,28.4375 46.9307,36.2708 38.5,46.5C 38.1787,43.155 37.8454,39.8217 37.5,36.5C 33.8333,36.5 30.1667,36.5 26.5,36.5C 26.4955,32.4659 26.1621,28.4659 25.5,24.5C 29.5138,24.6655 33.5138,24.4988 37.5,24C 38.8333,21 38.8333,18 37.5,15C 38.1905,13.9326 38.6905,12.7659 39,11.5C 42.73,12.4601 46.5633,12.7935 50.5,12.5C 50.3347,16.1817 50.5014,19.8484 51,23.5C 61.0473,27.159 64.8806,23.4924 62.5,12.5C 66.8689,12.5328 71.2022,12.1995 75.5,11.5C 75.2601,7.3939 74.5934,3.3939 73.5,-0.5 Z"/></g>
<g><path style="opacity:1" fill="#050505" d="M 184.5,50.5 C 210.301,88.1946 211.134,126.528 187,165.5C 161.208,198.103 127.708,210.603 86.5,203C 73.7577,199.627 62.091,194.127 51.5,186.5C 47.5621,183.065 43.7288,179.398 40,175.5C 36.786,166.927 39.6194,161.594 48.5,159.5C 51.324,159.83 53.9906,160.664 56.5,162C 75.4564,180.909 98.1231,187.742 124.5,182.5C 150.479,176.427 168.645,161.093 179,136.5C 190.053,100.166 180.553,70.6658 150.5,48C 116.647,28.6528 85.314,31.9862 56.5,58C 44.9698,62.9826 38.9698,59.1493 38.5,46.5C 46.9307,36.2708 57.264,28.4375 69.5,23C 114.076,6.56154 152.409,15.7282 184.5,50.5 Z"/></g>
<g><path style="opacity:1" fill="#f7f7f7" d="M 185.5,-0.5 C 198.5,-0.5 211.5,-0.5 224.5,-0.5C 224.5,74.5 224.5,149.5 224.5,224.5C 149.5,224.5 74.5,224.5 -0.5,224.5C -0.5,206.833 -0.5,189.167 -0.5,171.5C 1.02656,167.787 2.02656,163.787 2.5,159.5C 6.2009,159.053 9.86757,158.72 13.5,158.5C 13.3345,154.486 13.5012,150.486 14,146.5C 17.9549,146.629 22.1216,146.629 26.5,146.5C 26.1667,150.5 25.8333,154.5 25.5,158.5C 21.8183,158.335 18.1516,158.501 14.5,159C 13.8637,162.79 13.197,166.623 12.5,170.5C 8.90623,171.426 5.23957,171.759 1.5,171.5C 1.78917,175.106 1.45584,178.606 0.5,182C 1.8905,183.02 3.3905,183.853 5,184.5C 7.71914,183.556 10.5525,183.223 13.5,183.5C 13.8745,187.336 13.8745,191.336 13.5,195.5C 24.3221,192.658 28.6554,196.658 26.5,207.5C 30.6,206.995 34.6,206.995 38.5,207.5C 38.6653,203.818 38.4986,200.152 38,196.5C 34.27,195.54 30.4367,195.207 26.5,195.5C 26.3043,191.729 25.971,187.896 25.5,184C 28.6814,183.29 31.6814,182.957 34.5,183C 35.6537,182.086 35.487,181.253 34,180.5C 33.3333,179.167 33.3333,177.833 34,176.5C 34.554,180.428 36.554,181.761 40,180.5C 41.827,182.24 41.6603,183.907 39.5,185.5C 40.7178,186.803 40.3845,187.803 38.5,188.5C 39.5,189.167 40.5,189.833 41.5,190.5C 41.1543,191.696 40.6543,191.696 40,190.5C 39.6905,191.766 39.1905,192.933 38.5,194C 42.1516,194.499 45.8183,194.665 49.5,194.5C 50.4271,191.955 50.4271,189.622 49.5,187.5C 49.9569,186.702 50.6236,186.369 51.5,186.5C 62.091,194.127 73.7577,199.627 86.5,203C 127.708,210.603 161.208,198.103 187,165.5C 211.134,126.528 210.301,88.1946 184.5,50.5C 185.85,47.894 187.35,47.894 189,50.5C 188.923,49.2624 189.089,48.2624 189.5,47.5C 190.192,48.0253 190.692,48.6919 191,49.5C 192.427,47.2129 194.261,46.8795 196.5,48.5C 197.325,44.8776 197.825,41.211 198,37.5C 201.79,36.8637 205.623,36.197 209.5,35.5C 210.22,31.9596 209.886,28.4596 208.5,25C 204.911,24.7931 201.411,24.2931 198,23.5C 197.797,19.5787 197.297,15.7454 196.5,12C 192.838,12.8206 189.172,12.6539 185.5,11.5C 185.324,7.28886 185.324,3.28886 185.5,-0.5 Z"/></g>
<g><path style="opacity:1" fill="#040404" d="M 99.5,146.5 C 98.0391,142.712 98.3724,139.046 100.5,135.5C 105.012,130.488 109.679,125.655 114.5,121C 83.1667,120.667 51.8333,120.333 20.5,120C 16.2961,117.762 13.9628,114.262 13.5,109.5C 14.0701,105.088 16.4034,101.922 20.5,100C 51.8333,99.6667 83.1667,99.3333 114.5,99C 110.061,93.5581 105.228,88.3915 100,83.5C 97.1457,72.6866 101.312,67.52 112.5,68C 124.017,77.2889 134.517,87.4555 144,98.5C 148.806,106.715 148.473,114.715 143,122.5C 133.83,131.336 124.997,140.503 116.5,150C 109.694,153.979 104.027,152.812 99.5,146.5 Z"/></g>
<g><path style="opacity:1" fill="#f6f6f6" d="M 124.5,182.5 C 124.082,181.778 123.416,181.278 122.5,181C 123.38,179.644 123.714,178.144 123.5,176.5C 127.311,176.404 127.311,175.738 123.5,174.5C 123.833,173.833 124.167,173.167 124.5,172.5C 120.287,171.805 116.121,171.139 112,170.5C 111.825,166.789 111.325,163.122 110.5,159.5C 106.825,158.124 103.158,157.624 99.5,158C 100.641,157.259 100.641,156.425 99.5,155.5C 100.025,154.808 100.692,154.308 101.5,154C 100.315,151.943 99.3146,149.943 98.5,148C 99.056,147.617 99.3893,147.117 99.5,146.5C 104.027,152.812 109.694,153.979 116.5,150C 124.997,140.503 133.83,131.336 143,122.5C 148.473,114.715 148.806,106.715 144,98.5C 134.517,87.4555 124.017,77.2889 112.5,68C 101.312,67.52 97.1457,72.6866 100,83.5C 105.228,88.3915 110.061,93.5581 114.5,99C 83.1667,99.3333 51.8333,99.6667 20.5,100C 16.4034,101.922 14.0701,105.088 13.5,109.5C 12.0689,109.881 11.2355,110.881 11,112.5C 10.8295,110.285 10.1628,108.285 9,106.5C 9,107.833 9,109.167 9,110.5C 7.02571,110.374 4.85904,110.208 2.5,110C 1.70694,106.589 1.20694,103.089 1,99.5C 0.617425,98.944 0.117425,98.6107 -0.5,98.5C -0.5,86.1667 -0.5,73.8333 -0.5,61.5C 1.42277,65.0293 2.08943,69.0293 1.5,73.5C 4.8499,73.335 8.18323,73.5017 11.5,74C 12.5,74.8333 13.5,75.6667 14.5,76.5C 13.9037,79.1716 13.5703,82.1716 13.5,85.5C 9.76043,85.2408 6.09377,85.5741 2.5,86.5C 1.51078,90.1073 1.17744,93.774 1.5,97.5C 5.10636,97.2108 8.60636,97.5442 12,98.5C 13.1901,94.6192 13.8568,90.6192 14,86.5C 15.9063,85.8689 17.9063,85.5356 20,85.5C 22.3023,85.6004 24.3023,86.267 26,87.5C 26.6667,90.5 26.6667,93.5 26,96.5C 25.2496,97.1258 24.4162,97.6258 23.5,98C 28.4551,97.838 33.4551,97.5047 38.5,97C 38.715,93.4451 38.3817,89.7784 37.5,86C 41.8206,85.501 46.1539,85.3343 50.5,85.5C 50.6664,77.8261 50.4997,70.1594 50,62.5C 49.5017,65.8168 49.335,69.1501 49.5,72.5C 46.1667,72.5 42.8333,72.5 39.5,72.5C 39.7507,69.091 39.4173,65.7577 38.5,62.5C 37.3717,61.7379 36.2051,61.0712 35,60.5C 34.1822,55.2063 33.6822,55.2063 33.5,60.5C 31.2075,60.7564 29.0408,60.4231 27,59.5C 26.3333,56.5 26.3333,53.5 27,50.5C 28.6667,50.1667 30.3333,49.8333 32,49.5C 32.3333,50.1667 32.6667,50.8333 33,51.5C 33.9745,49.1224 34.6411,49.4557 35,52.5C 35.7162,50.1209 36.8828,48.1209 38.5,46.5C 38.9698,59.1493 44.9698,62.9826 56.5,58C 85.314,31.9862 116.647,28.6528 150.5,48C 180.553,70.6658 190.053,100.166 179,136.5C 168.645,161.093 150.479,176.427 124.5,182.5 Z"/></g>
<g><path style="opacity:1" fill="#f7f7f7" d="M -0.5,98.5 C 0.117425,98.6107 0.617425,98.944 1,99.5C 1.20694,103.089 1.70694,106.589 2.5,110C 4.85904,110.208 7.02571,110.374 9,110.5C 9,109.167 9,107.833 9,106.5C 10.1628,108.285 10.8295,110.285 11,112.5C 11.2355,110.881 12.0689,109.881 13.5,109.5C 13.9628,114.262 16.2961,117.762 20.5,120C 51.8333,120.333 83.1667,120.667 114.5,121C 109.679,125.655 105.012,130.488 100.5,135.5C 98.3724,139.046 98.0391,142.712 99.5,146.5C 99.3893,147.117 99.056,147.617 98.5,148C 99.3146,149.943 100.315,151.943 101.5,154C 100.692,154.308 100.025,154.808 99.5,155.5C 100.641,156.425 100.641,157.259 99.5,158C 103.158,157.624 106.825,158.124 110.5,159.5C 111.325,163.122 111.825,166.789 112,170.5C 116.121,171.139 120.287,171.805 124.5,172.5C 124.167,173.167 123.833,173.833 123.5,174.5C 127.311,175.738 127.311,176.404 123.5,176.5C 123.714,178.144 123.38,179.644 122.5,181C 123.416,181.278 124.082,181.778 124.5,182.5C 98.1231,187.742 75.4564,180.909 56.5,162C 53.9906,160.664 51.324,159.83 48.5,159.5C 39.6194,161.594 36.786,166.927 40,175.5C 43.7288,179.398 47.5621,183.065 51.5,186.5C 50.6236,186.369 49.9569,186.702 49.5,187.5C 50.4271,189.622 50.4271,191.955 49.5,194.5C 45.8183,194.665 42.1516,194.499 38.5,194C 39.1905,192.933 39.6905,191.766 40,190.5C 40.6543,191.696 41.1543,191.696 41.5,190.5C 40.5,189.833 39.5,189.167 38.5,188.5C 40.3845,187.803 40.7178,186.803 39.5,185.5C 41.6603,183.907 41.827,182.24 40,180.5C 36.554,181.761 34.554,180.428 34,176.5C 33.3333,177.833 33.3333,179.167 34,180.5C 35.487,181.253 35.6537,182.086 34.5,183C 31.6814,182.957 28.6814,183.29 25.5,184C 25.971,187.896 26.3043,191.729 26.5,195.5C 30.4367,195.207 34.27,195.54 38,196.5C 38.4986,200.152 38.6653,203.818 38.5,207.5C 34.6,206.995 30.6,206.995 26.5,207.5C 28.6554,196.658 24.3221,192.658 13.5,195.5C 13.8745,191.336 13.8745,187.336 13.5,183.5C 10.5525,183.223 7.71914,183.556 5,184.5C 3.3905,183.853 1.8905,183.02 0.5,182C 1.45584,178.606 1.78917,175.106 1.5,171.5C 5.23957,171.759 8.90623,171.426 12.5,170.5C 13.197,166.623 13.8637,162.79 14.5,159C 18.1516,158.501 21.8183,158.335 25.5,158.5C 25.8333,154.5 26.1667,150.5 26.5,146.5C 22.1216,146.629 17.9549,146.629 14,146.5C 13.5012,150.486 13.3345,154.486 13.5,158.5C 9.86757,158.72 6.2009,159.053 2.5,159.5C 2.02656,163.787 1.02656,167.787 -0.5,171.5C -0.5,147.167 -0.5,122.833 -0.5,98.5 Z"/></g>
</svg>
