<?xml version="1.0" encoding="iso-8859-1"?>
<!-- Uploaded to: SVG Repo, www.svgrepo.com, Generator: SVG Repo Mixer Tools -->
<svg fill="#000000" height="800px" width="800px" version="1.1" id="Capa_1" xmlns="http://www.w3.org/2000/svg" xmlns:xlink="http://www.w3.org/1999/xlink" 
	 viewBox="0 0 612.002 612.002" xml:space="preserve">
<g>
	<path d="M539.655,340.297c-14.929-14.925-39.125-14.925-54.054,0c-14.925,14.927-14.925,39.127,0,54.054l8.726,8.726h-50.745
		c-36.955,0-63.735-35.973-100.758-96.033c37.689-61.308,64.665-98.122,102.044-98.122h49.458l-8.724,8.724
		c-14.925,14.927-14.925,39.127,0.002,54.052c7.463,7.463,17.241,11.193,27.025,11.193c9.781,0,19.566-3.732,27.027-11.195
		l52.083-52.086c13.067-13.063,20.262-30.432,20.262-48.909c0-18.475-7.192-35.842-20.257-48.912l-52.087-52.084
		c-14.927-14.925-39.129-14.924-54.054,0.002c-14.925,14.927-14.925,39.127,0.002,54.052l8.726,8.726h-49.461
		c-39.772,0-74.956,16.767-107.561,51.26c-14.434,15.27-27.468,33.099-39.785,51.797c-11.546-16.5-23.92-32.238-37.724-46.286
		c-37.55-38.202-78.693-56.771-125.78-56.771H38.22C17.112,132.483,0,149.595,0,170.703s17.112,38.22,38.22,38.22h95.797
		c48.538,0,80.845,37.948,118.974,98.08c-37.573,58.957-69.702,96.072-117.694,96.072H39.498c-21.108,0-38.222,17.111-38.222,38.22
		s17.112,38.22,38.222,38.22h95.797c47.087,0,88.232-18.57,125.782-56.771c13.282-13.511,25.238-28.584,36.408-44.398
		c11.947,18.011,24.59,35.154,38.537,49.909c32.604,34.493,67.787,51.26,107.559,51.26h50.746l-8.728,8.729
		c-14.925,14.925-14.925,39.125,0.002,54.051c7.463,7.463,17.241,11.193,27.025,11.193c9.78,0,19.566-3.732,27.027-11.195
		l52.087-52.089c26.964-26.966,26.966-70.844,0-97.818L539.655,340.297z"/>
</g>
</svg>