<?xml version="1.0" encoding="UTF-8"?>
<!DOCTYPE svg PUBLIC "-//W3C//DTD SVG 1.1//EN" "http://www.w3.org/Graphics/SVG/1.1/DTD/svg11.dtd">
<svg xmlns="http://www.w3.org/2000/svg" version="1.1" width="225px" height="225px" style="shape-rendering:geometricPrecision; text-rendering:geometricPrecision; image-rendering:optimizeQuality; fill-rule:evenodd; clip-rule:evenodd" xmlns:xlink="http://www.w3.org/1999/xlink">
<g><path style="opacity:1" fill="#f7f7f7" d="M 109.5,-0.5 C 147.833,-0.5 186.167,-0.5 224.5,-0.5C 224.5,41.8333 224.5,84.1667 224.5,126.5C 222.856,126.286 221.356,126.62 220,127.5C 218.986,131.099 218.153,134.765 217.5,138.5C 216.808,137.975 216.308,137.308 216,136.5C 215.395,138.481 214.395,138.815 213,137.5C 210.533,140.027 208.033,140.027 205.5,137.5C 210.597,132.902 214.764,127.568 218,121.5C 220.596,114.266 219.596,107.599 215,101.5C 206.167,92.6667 197.333,83.8333 188.5,75C 186.807,74.1534 185.14,73.3201 183.5,72.5C 182.131,70.9323 181.131,69.099 180.5,67C 177.518,66.502 174.518,66.3354 171.5,66.5C 171.737,70.4102 170.904,74.0769 169,77.5C 168.667,77.1667 168.333,76.8333 168,76.5C 164.923,77.903 161.757,79.2363 158.5,80.5C 157.539,83.6309 157.539,86.4642 158.5,89C 154.582,90.1564 150.582,90.6564 146.5,90.5C 146.823,86.774 146.489,83.1073 145.5,79.5C 141.906,78.5741 138.24,78.2408 134.5,78.5C 133.92,74.19 133.586,69.8566 133.5,65.5C 129.818,65.3347 126.152,65.5014 122.5,66C 121.54,69.73 121.207,73.5633 121.5,77.5C 117.452,77.8396 113.452,78.5062 109.5,79.5C 110.074,81.0589 110.74,82.5589 111.5,84C 109.578,85.46 108.911,87.1267 109.5,89C 112.554,89.8214 115.554,89.6548 118.5,88.5C 117.494,87.6043 117.494,86.9377 118.5,86.5C 119.167,87.1667 119.833,87.8333 120.5,88.5C 121.167,85.1667 121.833,81.8333 122.5,78.5C 123.086,78.2907 123.586,77.9574 124,77.5C 127.057,78.4505 130.223,78.7839 133.5,78.5C 133.223,81.4475 133.556,84.2809 134.5,87C 133.833,88 133.167,89 132.5,90C 128.5,90.3333 124.5,90.6667 120.5,91C 123.462,101.536 119.462,105.369 108.5,102.5C 108.823,98.774 108.489,95.1073 107.5,91.5C 103.744,90.8187 100.078,89.8187 96.5,88.5C 96.7181,85.366 97.0515,82.0326 97.5,78.5C 107.15,80.021 110.484,76.1876 107.5,67C 104.183,66.5017 100.85,66.335 97.5,66.5C 98.9356,70.1453 98.6022,73.6453 96.5,77C 92.4322,78.3418 88.4322,78.5085 84.5,77.5C 81.4474,67.2568 85.1141,62.9235 95.5,64.5C 95.5,61.1667 95.5,57.8333 95.5,54.5C 92.5192,54.456 92.1858,54.1227 94.5,53.5C 95.6473,53.8178 96.4806,54.4844 97,55.5C 97.4983,58.8168 97.665,62.1501 97.5,65.5C 101.226,65.8226 104.893,65.4892 108.5,64.5C 109.575,61.562 109.741,58.562 109,55.5C 105.49,53.7815 101.656,52.9481 97.5,53C 96.1667,49.6667 96.1667,46.3333 97.5,43C 95.8659,42.5065 94.1992,42.3398 92.5,42.5C 92.5,42.1667 92.5,41.8333 92.5,41.5C 99.1531,40.9457 105.82,40.6123 112.5,40.5C 114.95,40.298 117.283,40.6314 119.5,41.5C 124.063,42.811 128.729,44.1443 133.5,45.5C 135.05,46.4408 136.716,47.1075 138.5,47.5C 143,51.3286 148,52.3286 153.5,50.5C 156.112,49.7225 157.945,48.0559 159,45.5C 159.837,41.7054 159.504,38.0387 158,34.5C 152.5,30.8335 146.667,27.8335 140.5,25.5C 138.68,23.5516 136.346,22.5516 133.5,22.5C 133.509,20.6916 133.009,19.0249 132,17.5C 130.701,17.9662 129.201,17.9662 127.5,17.5C 125.782,16.776 123.948,16.1094 122,15.5C 121.501,11.8484 121.335,8.18174 121.5,4.5C 117.818,4.6653 114.152,4.49863 110.5,4C 109.62,2.64387 109.286,1.14387 109.5,-0.5 Z"/></g>
<g><path style="opacity:1" fill="#c7c7c7" d="M 127.5,17.5 C 129.201,17.9662 130.701,17.9662 132,17.5C 133.009,19.0249 133.509,20.6916 133.5,22.5C 136.346,22.5516 138.68,23.5516 140.5,25.5C 125.948,20.3533 110.948,18.3533 95.5,19.5C 106.017,18.7396 116.683,18.0729 127.5,17.5 Z"/></g>
<g><path style="opacity:1" fill="#060606" d="M 95.5,19.5 C 110.948,18.3533 125.948,20.3533 140.5,25.5C 146.667,27.8335 152.5,30.8335 158,34.5C 159.504,38.0387 159.837,41.7054 159,45.5C 157.945,48.0559 156.112,49.7225 153.5,50.5C 148.307,50.2832 143.307,49.2832 138.5,47.5C 136.716,47.1075 135.05,46.4408 133.5,45.5C 132.426,44.1154 131.093,42.9487 129.5,42C 126.183,41.5017 122.85,41.335 119.5,41.5C 117.283,40.6314 114.95,40.298 112.5,40.5C 105.769,39.1232 99.1018,39.4566 92.5,41.5C 88.2924,41.677 84.6257,43.0103 81.5,45.5C 57.6382,54.2013 42.1382,70.868 35,95.5C 29.2697,121.042 34.7697,143.709 51.5,163.5C 59.4615,173.475 69.4615,180.475 81.5,184.5C 83.5145,185.924 85.8478,186.59 88.5,186.5C 89.6085,187.29 90.9419,187.79 92.5,188C 101.676,188.824 110.676,188.657 119.5,187.5C 123.222,186.983 126.888,186.15 130.5,185C 137.004,182.324 143.504,179.824 150,177.5C 160.01,180.734 162.177,186.901 156.5,196C 149.059,200.89 141.059,204.39 132.5,206.5C 128.521,206.742 124.854,207.742 121.5,209.5C 120.833,209.5 120.167,209.5 119.5,209.5C 107.778,209.664 96.111,208.997 84.5,207.5C 83.391,207.443 82.391,207.11 81.5,206.5C 79.8984,204.926 77.8984,204.259 75.5,204.5C 41.6364,191.505 20.8031,167.172 13,131.5C 7.75244,81.816 27.5858,46.316 72.5,25C 75.9338,24.4424 79.2672,23.609 82.5,22.5C 85.1522,22.5905 87.4855,21.9238 89.5,20.5C 91.7354,20.7947 93.7354,20.4614 95.5,19.5 Z"/></g>
<g><path style="opacity:1" fill="#6e6e6e" d="M 89.5,20.5 C 87.4855,21.9238 85.1522,22.5905 82.5,22.5C 84.5145,21.0762 86.8478,20.4095 89.5,20.5 Z"/></g>
<g><path style="opacity:1" fill="#595959" d="M 112.5,40.5 C 105.82,40.6123 99.1531,40.9457 92.5,41.5C 99.1018,39.4566 105.769,39.1232 112.5,40.5 Z"/></g>
<g><path style="opacity:1" fill="#393939" d="M 119.5,41.5 C 122.85,41.335 126.183,41.5017 129.5,42C 131.093,42.9487 132.426,44.1154 133.5,45.5C 128.729,44.1443 124.063,42.811 119.5,41.5 Z"/></g>
<g><path style="opacity:1" fill="#828282" d="M 92.5,41.5 C 92.5,41.8333 92.5,42.1667 92.5,42.5C 88.7768,43.2967 85.1101,44.2967 81.5,45.5C 84.6257,43.0103 88.2924,41.677 92.5,41.5 Z"/></g>
<g><path style="opacity:1" fill="#373737" d="M 138.5,47.5 C 143.307,49.2832 148.307,50.2832 153.5,50.5C 148,52.3286 143,51.3286 138.5,47.5 Z"/></g>
<g><path style="opacity:1" fill="#f6f6f6" d="M 92.5,42.5 C 94.1992,42.3398 95.8659,42.5065 97.5,43C 96.1667,46.3333 96.1667,49.6667 97.5,53C 101.656,52.9481 105.49,53.7815 109,55.5C 109.741,58.562 109.575,61.562 108.5,64.5C 104.893,65.4892 101.226,65.8226 97.5,65.5C 97.665,62.1501 97.4983,58.8168 97,55.5C 96.4806,54.4844 95.6473,53.8178 94.5,53.5C 92.1858,54.1227 92.5192,54.456 95.5,54.5C 95.5,57.8333 95.5,61.1667 95.5,64.5C 85.1141,62.9235 81.4474,67.2568 84.5,77.5C 88.4322,78.5085 92.4322,78.3418 96.5,77C 98.6022,73.6453 98.9356,70.1453 97.5,66.5C 100.85,66.335 104.183,66.5017 107.5,67C 110.484,76.1876 107.15,80.021 97.5,78.5C 97.0515,82.0326 96.7181,85.366 96.5,88.5C 100.078,89.8187 103.744,90.8187 107.5,91.5C 108.489,95.1073 108.823,98.774 108.5,102.5C 119.462,105.369 123.462,101.536 120.5,91C 124.5,90.6667 128.5,90.3333 132.5,90C 133.167,89 133.833,88 134.5,87C 133.556,84.2809 133.223,81.4475 133.5,78.5C 130.223,78.7839 127.057,78.4505 124,77.5C 123.586,77.9574 123.086,78.2907 122.5,78.5C 121.833,81.8333 121.167,85.1667 120.5,88.5C 119.833,87.8333 119.167,87.1667 118.5,86.5C 117.494,86.9377 117.494,87.6043 118.5,88.5C 115.554,89.6548 112.554,89.8214 109.5,89C 108.911,87.1267 109.578,85.46 111.5,84C 110.74,82.5589 110.074,81.0589 109.5,79.5C 113.452,78.5062 117.452,77.8396 121.5,77.5C 121.207,73.5633 121.54,69.73 122.5,66C 126.152,65.5014 129.818,65.3347 133.5,65.5C 133.586,69.8566 133.92,74.19 134.5,78.5C 138.24,78.2408 141.906,78.5741 145.5,79.5C 146.489,83.1073 146.823,86.774 146.5,90.5C 150.582,90.6564 154.582,90.1564 158.5,89C 157.539,86.4642 157.539,83.6309 158.5,80.5C 161.757,79.2363 164.923,77.903 168,76.5C 168.333,76.8333 168.667,77.1667 169,77.5C 170.904,74.0769 171.737,70.4102 171.5,66.5C 174.518,66.3354 177.518,66.502 180.5,67C 181.131,69.099 182.131,70.9323 183.5,72.5C 171.956,73.2092 168.456,78.8759 173,89.5C 177.37,93.7022 181.537,98.0355 185.5,102.5C 158.167,103.167 130.833,103.833 103.5,104.5C 96.5406,107.89 94.7073,113.223 98,120.5C 99.7297,122.402 101.563,124.069 103.5,125.5C 101.742,125.877 100.075,126.544 98.5,127.5C 97.8333,131.167 97.1667,134.833 96.5,138.5C 92.5705,139.433 88.5705,139.766 84.5,139.5C 84.5,143.5 84.5,147.5 84.5,151.5C 80.5,151.5 76.5,151.5 72.5,151.5C 72.3347,155.182 72.5014,158.848 73,162.5C 76.73,163.46 80.5633,163.793 84.5,163.5C 84.6655,167.514 84.4988,171.514 84,175.5C 82.3333,174.5 80.6667,173.5 79,172.5C 77.3141,175.022 75.9808,174.689 75,171.5C 73.1759,172.749 73.3426,173.915 75.5,175C 74.552,175.483 73.552,175.649 72.5,175.5C 72.6653,171.818 72.4986,168.152 72,164.5C 68.0832,163.744 64.2498,163.41 60.5,163.5C 58.9826,163.511 57.8159,164.177 57,165.5C 55.5993,163.808 53.7659,163.141 51.5,163.5C 34.7697,143.709 29.2697,121.042 35,95.5C 42.1382,70.868 57.6382,54.2013 81.5,45.5C 85.1101,44.2967 88.7768,43.2967 92.5,42.5 Z"/></g>
<g><path style="opacity:1" fill="#070707" d="M 183.5,72.5 C 185.14,73.3201 186.807,74.1534 188.5,75C 197.333,83.8333 206.167,92.6667 215,101.5C 219.596,107.599 220.596,114.266 218,121.5C 214.764,127.568 210.597,132.902 205.5,137.5C 199.004,143.829 192.337,149.995 185.5,156C 175.118,158.285 170.285,154.119 171,143.5C 175.423,137.072 180.59,131.239 186.5,126C 158.835,125.5 131.169,125.333 103.5,125.5C 101.563,124.069 99.7297,122.402 98,120.5C 94.7073,113.223 96.5406,107.89 103.5,104.5C 131.175,104.833 158.841,104.5 186.5,103.5C 186.376,102.893 186.043,102.56 185.5,102.5C 181.537,98.0355 177.37,93.7022 173,89.5C 168.456,78.8759 171.956,73.2092 183.5,72.5 Z"/></g>
<g><path style="opacity:1" fill="#8b8b8b" d="M 185.5,102.5 C 186.043,102.56 186.376,102.893 186.5,103.5C 158.841,104.5 131.175,104.833 103.5,104.5C 130.833,103.833 158.167,103.167 185.5,102.5 Z"/></g>
<g><path style="opacity:1" fill="#f7f7f7" d="M -0.5,-0.5 C 36.1667,-0.5 72.8333,-0.5 109.5,-0.5C 109.286,1.14387 109.62,2.64387 110.5,4C 114.152,4.49863 117.818,4.6653 121.5,4.5C 121.335,8.18174 121.501,11.8484 122,15.5C 123.948,16.1094 125.782,16.776 127.5,17.5C 116.683,18.0729 106.017,18.7396 95.5,19.5C 93.7354,20.4614 91.7354,20.7947 89.5,20.5C 86.8478,20.4095 84.5145,21.0762 82.5,22.5C 79.2672,23.609 75.9338,24.4424 72.5,25C 27.5858,46.316 7.75244,81.816 13,131.5C 20.8031,167.172 41.6364,191.505 75.5,204.5C 77.1016,206.074 79.1016,206.741 81.5,206.5C 82.391,207.11 83.391,207.443 84.5,207.5C 96.0421,210.522 107.709,211.189 119.5,209.5C 120.167,209.5 120.833,209.5 121.5,209.5C 125.479,209.258 129.146,208.258 132.5,206.5C 141.059,204.39 149.059,200.89 156.5,196C 162.177,186.901 160.01,180.734 150,177.5C 143.504,179.824 137.004,182.324 130.5,185C 126.888,186.15 123.222,186.983 119.5,187.5C 112.159,187.666 104.826,187.5 97.5,187C 96.9484,184.175 96.4484,181.008 96,177.5C 95.1074,176.919 94.1074,176.585 93,176.5C 90.4599,177.595 87.9599,177.761 85.5,177C 83.5406,179.316 83.5406,181.316 85.5,183C 82.8078,183.43 80.1411,183.263 77.5,182.5C 77.6495,181.448 77.4828,180.448 77,179.5C 75.9505,180.517 74.7839,180.684 73.5,180C 72.8333,178.667 72.1667,177.333 71.5,176C 70.5509,175.383 69.7175,175.549 69,176.5C 68.0766,175.241 67.2432,173.908 66.5,172.5C 61.1762,171.488 59.1762,168.488 60.5,163.5C 64.2498,163.41 68.0832,163.744 72,164.5C 72.4986,168.152 72.6653,171.818 72.5,175.5C 73.552,175.649 74.552,175.483 75.5,175C 73.3426,173.915 73.1759,172.749 75,171.5C 75.9808,174.689 77.3141,175.022 79,172.5C 80.6667,173.5 82.3333,174.5 84,175.5C 84.4988,171.514 84.6655,167.514 84.5,163.5C 80.5633,163.793 76.73,163.46 73,162.5C 72.5014,158.848 72.3347,155.182 72.5,151.5C 76.5,151.5 80.5,151.5 84.5,151.5C 84.5,147.5 84.5,143.5 84.5,139.5C 88.5705,139.766 92.5705,139.433 96.5,138.5C 97.1667,134.833 97.8333,131.167 98.5,127.5C 100.075,126.544 101.742,125.877 103.5,125.5C 131.169,125.333 158.835,125.5 186.5,126C 180.59,131.239 175.423,137.072 171,143.5C 170.285,154.119 175.118,158.285 185.5,156C 192.337,149.995 199.004,143.829 205.5,137.5C 208.033,140.027 210.533,140.027 213,137.5C 214.395,138.815 215.395,138.481 216,136.5C 216.308,137.308 216.808,137.975 217.5,138.5C 218.153,134.765 218.986,131.099 220,127.5C 221.356,126.62 222.856,126.286 224.5,126.5C 224.5,159.167 224.5,191.833 224.5,224.5C 149.5,224.5 74.5,224.5 -0.5,224.5C -0.5,149.5 -0.5,74.5 -0.5,-0.5 Z"/></g>
<g><path style="opacity:1" fill="#e3e3e3" d="M 51.5,163.5 C 53.7659,163.141 55.5993,163.808 57,165.5C 57.8159,164.177 58.9826,163.511 60.5,163.5C 59.1762,168.488 61.1762,171.488 66.5,172.5C 67.2432,173.908 68.0766,175.241 69,176.5C 69.7175,175.549 70.5509,175.383 71.5,176C 72.1667,177.333 72.8333,178.667 73.5,180C 74.7839,180.684 75.9505,180.517 77,179.5C 77.4828,180.448 77.6495,181.448 77.5,182.5C 80.1411,183.263 82.8078,183.43 85.5,183C 83.5406,181.316 83.5406,179.316 85.5,177C 87.9599,177.761 90.4599,177.595 93,176.5C 94.1074,176.585 95.1074,176.919 96,177.5C 96.4484,181.008 96.9484,184.175 97.5,187C 104.826,187.5 112.159,187.666 119.5,187.5C 110.676,188.657 101.676,188.824 92.5,188C 90.9419,187.79 89.6085,187.29 88.5,186.5C 86.5615,184.837 84.2282,184.171 81.5,184.5C 69.4615,180.475 59.4615,173.475 51.5,163.5 Z"/></g>
<g><path style="opacity:1" fill="#949494" d="M 81.5,184.5 C 84.2282,184.171 86.5615,184.837 88.5,186.5C 85.8478,186.59 83.5145,185.924 81.5,184.5 Z"/></g>
<g><path style="opacity:1" fill="#505050" d="M 75.5,204.5 C 77.8984,204.259 79.8984,204.926 81.5,206.5C 79.1016,206.741 77.1016,206.074 75.5,204.5 Z"/></g>
<g><path style="opacity:1" fill="#545454" d="M 84.5,207.5 C 96.111,208.997 107.778,209.664 119.5,209.5C 107.709,211.189 96.0421,210.522 84.5,207.5 Z"/></g>
<g><path style="opacity:1" fill="#8a8a8a" d="M 132.5,206.5 C 129.146,208.258 125.479,209.258 121.5,209.5C 124.854,207.742 128.521,206.742 132.5,206.5 Z"/></g>
</svg>
