<?xml version="1.0" ?>
<!DOCTYPE svg  PUBLIC '-//W3C//DTD SVG 1.1//EN'  'http://www.w3.org/Graphics/SVG/1.1/DTD/svg11.dtd'>
<!-- Uploaded to: SVG Repo, www.svgrepo.com, Generator: SVG Repo Mixer Tools -->
<svg width="800px" height="800px" viewBox="0 0 32 32" style="fill-rule:evenodd;clip-rule:evenodd;stroke-linecap:round;stroke-linejoin:round;stroke-miterlimit:1.5;" version="1.1" xml:space="preserve" xmlns="http://www.w3.org/2000/svg" xmlns:serif="http://www.serif.com/" xmlns:xlink="http://www.w3.org/1999/xlink">
<g id="Icon">
<path d="M17.995,25.997l-0.002,-0c-1.105,-0 -2.002,0.897 -2.002,2.001c0,1.105 0.897,2.002 2.002,2.002c1.105,0 2.002,-0.897 2.002,-2.002l-0,-7.122c-0,-0 6.001,-0.75 6.001,-0.75l0.002,3.867c-1.104,0 -2.001,0.897 -2.001,2.002c-0,1.105 0.897,2.002 2.001,2.002c1.105,-0 2.002,-0.897 2.002,-2.002l-0.005,-7.003c-0,-0.286 -0.124,-0.559 -0.339,-0.749c-0.215,-0.189 -0.501,-0.278 -0.785,-0.242l-8,1c-0.501,0.062 -0.876,0.488 -0.876,0.992l-0,6.004Z"/>
<path d="M17.995,25.997l-0.002,-0c-1.105,-0 -2.002,0.897 -2.002,2.001c0,1.105 0.897,2.002 2.002,2.002c1.105,0 2.002,-0.897 2.002,-2.002l-0,-7.122c-0,-0 6.001,-0.75 6.001,-0.75l0.002,3.867c-1.104,0 -2.001,0.897 -2.001,2.002c-0,1.105 0.897,2.002 2.001,2.002c1.105,-0 2.002,-0.897 2.002,-2.002l-0.005,-7.003c-0,-0.286 -0.124,-0.559 -0.339,-0.749c-0.215,-0.189 -0.501,-0.278 -0.785,-0.242l-8,1c-0.501,0.062 -0.876,0.488 -0.876,0.992l-0,6.004Z"/>
<path d="M13,28.652c-5.748,-1.344 -9.999,-6.505 -9.999,-12.659c0,-7.175 5.825,-13 13,-13c7.019,0 12.747,5.575 12.992,12.535" style="fill:none;stroke:#000000;stroke-width:2px;"/>
<path d="M16.001,7l-0.01,9.002" style="fill:none;stroke:#000000;stroke-width:2px;"/>
<path d="M6.99,16.002l9.001,-0" style="fill:none;stroke:#000000;stroke-width:2px;"/>
</g>
</svg>