<?xml version="1.0" encoding="UTF-8"?>
<!DOCTYPE svg PUBLIC "-//W3C//DTD SVG 1.1//EN" "http://www.w3.org/Graphics/SVG/1.1/DTD/svg11.dtd">
<svg xmlns="http://www.w3.org/2000/svg" version="1.1" width="96px" height="96px" style="shape-rendering:geometricPrecision; text-rendering:geometricPrecision; image-rendering:optimizeQuality; fill-rule:evenodd; clip-rule:evenodd" xmlns:xlink="http://www.w3.org/1999/xlink">
<g><path style="opacity:0.878" fill="#000000" d="M 15.5,7.5 C 18.147,9.81085 20.8136,12.1442 23.5,14.5C 34.9803,7.44829 47.3136,5.61496 60.5,9C 84.4954,19.8367 92.6621,38.0034 85,63.5C 71.7498,86.9176 52.5831,93.4176 27.5,83C 14.2429,74.9029 7.57619,63.0695 7.5,47.5C 10.5,47.5 13.5,47.5 16.5,47.5C 17.8285,66.8285 28.1618,77.1618 47.5,78.5C 66.8333,77.1667 77.1667,66.8333 78.5,47.5C 77.9822,33.4847 71.3155,23.6513 58.5,18C 52.235,16.5158 45.9017,16.1824 39.5,17C 36.2211,17.9728 33.2211,19.4728 30.5,21.5C 31.982,23.4829 33.6487,25.3163 35.5,27C 28.8417,27.4996 22.175,27.6663 15.5,27.5C 15.5,20.8333 15.5,14.1667 15.5,7.5 Z"/></g>
<g><path style="opacity:0.896" fill="#000000" d="M 39.5,35.5 C 46.4784,38.9888 53.1451,42.9888 59.5,47.5C 53.3717,51.7361 47.0384,55.7361 40.5,59.5C 39.5023,51.5277 39.169,43.5277 39.5,35.5 Z"/></g>
</svg>
