<svg width="24" height="24" viewBox="0 0 24 24" fill="none" xmlns="http://www.w3.org/2000/svg">
<path d="M18.0245 16.9565C16.8535 18.124 15.3632 18.9186 13.7412 19.2402C12.1193 19.5618 10.4384 19.3961 8.91066 18.7638C7.38282 18.1315 6.0764 17.061 5.15608 15.6873C4.23577 14.3136 3.74277 12.6981 3.73926 11.0447" stroke="black" stroke-width="1.5" stroke-miterlimit="10" stroke-linecap="round"/>
<path d="M17.3499 21.25L18.1816 17.8782C18.2199 17.7312 18.2279 17.578 18.2053 17.4278C18.1826 17.2776 18.1299 17.1336 18.05 17.0044C17.9702 16.8752 17.865 16.7635 17.7408 16.6761C17.6167 16.5886 17.476 16.5273 17.3275 16.4957L13.9556 15.6528" stroke="black" stroke-width="1.5" stroke-linecap="round" stroke-linejoin="round"/>
<path d="M5.97559 7.04337C7.14655 5.87594 8.63694 5.0814 10.2589 4.75978C11.8807 4.43815 13.5616 4.60396 15.0894 5.23616C16.6173 5.86846 17.9237 6.93894 18.8441 8.31272C19.7643 9.68639 20.2573 11.3019 20.2608 12.9553" stroke="black" stroke-width="1.5" stroke-miterlimit="10" stroke-linecap="round"/>
<path d="M6.65016 2.75L5.81844 6.12176C5.78019 6.26873 5.77214 6.42201 5.79475 6.57214C5.81736 6.72237 5.87019 6.86639 5.95003 6.99557C6.02986 7.12485 6.13504 7.23655 6.25924 7.32393C6.38344 7.41132 6.52408 7.47269 6.67265 7.50428L10.0445 8.34714" stroke="black" stroke-width="1.5" stroke-linecap="round" stroke-linejoin="round"/>
</svg>
