<svg width="24" height="24" viewBox="0 0 24 24" fill="none" xmlns="http://www.w3.org/2000/svg">
<path d="M21.25 6.86111V13.2025C21.2502 13.4737 21.1967 13.7423 21.0927 13.9928C20.9886 14.2433 20.836 14.4707 20.6436 14.6619L14.6619 20.6436C14.4707 20.836 14.2433 20.9886 13.9928 21.0927C13.7423 21.1967 13.4737 21.2502 13.2025 21.25H6.86111C5.77078 21.25 4.7251 20.8169 3.95412 20.0459C3.18313 19.2749 2.75 18.2292 2.75 17.1389V6.86111C2.75 5.77078 3.18313 4.7251 3.95412 3.95412C4.7251 3.18313 5.77078 2.75 6.86111 2.75H17.1389C18.2292 2.75 19.2749 3.18313 20.0459 3.95412C20.8169 4.7251 21.25 5.77078 21.25 6.86111Z" stroke="black" stroke-width="1.5" stroke-linecap="round" stroke-linejoin="round"/>
<path d="M14.0555 21.0753L13.5416 16.9641C13.4831 16.498 13.5319 16.0248 13.6843 15.5804C13.8366 15.1361 14.0885 14.7323 14.4207 14.4001C14.7529 14.068 15.1565 13.8162 15.6009 13.6638C16.0452 13.5115 16.5185 13.4626 16.9846 13.5211L21.0957 14.0349" stroke="black" stroke-width="1.5" stroke-linecap="round" stroke-linejoin="round"/>
<path d="M6.86084 7.88916H16.1109" stroke="black" stroke-width="1.5" stroke-linecap="round" stroke-linejoin="round"/>
<path d="M6.86084 12H10.972" stroke="black" stroke-width="1.5" stroke-linecap="round" stroke-linejoin="round"/>
<path d="M6.86084 16.1113H9.94418" stroke="black" stroke-width="1.5" stroke-linecap="round" stroke-linejoin="round"/>
</svg>
