<svg width="24" height="24" viewBox="0 0 24 24" fill="none" xmlns="http://www.w3.org/2000/svg">
<path d="M10.3666 4.46226L2.7525 17.655C2.58703 17.9416 2.49995 18.2667 2.5 18.5976C2.50005 18.9286 2.58724 19.2536 2.7528 19.5402C2.91836 19.8267 3.15645 20.0646 3.44313 20.23C3.7298 20.3953 4.05496 20.4822 4.38589 20.482H19.6141C19.945 20.4822 20.2702 20.3953 20.5569 20.23C20.8435 20.0646 21.0816 19.8267 21.2472 19.5402C21.4128 19.2536 21.4999 18.9286 21.5 18.5976C21.5001 18.2667 21.413 17.9416 21.2475 17.655L13.6334 4.46226C13.4681 4.17518 13.2301 3.93673 12.9434 3.77093C12.6566 3.60512 12.3312 3.51782 12 3.51782C11.6688 3.51782 11.3434 3.60512 11.0566 3.77093C10.7699 3.93673 10.5319 4.17518 10.3666 4.46226Z" stroke="black" stroke-width="1.5" stroke-linecap="round" stroke-linejoin="round"/>
<path d="M11.9946 7.57837V13.8552" stroke="black" stroke-width="1.5" stroke-linecap="round" stroke-linejoin="round"/>
<path d="M12.0431 17.3258H12.0342" stroke="black" stroke-width="2" stroke-linecap="round" stroke-linejoin="round"/>
</svg>
